<?xml version="1.0" encoding="utf-8"?>
<!-- Generator: Adobe Illustrator 19.0.0, SVG Export Plug-In . SVG Version: 6.00 Build 0)  -->
<svg version="1.1" id="Layer_1" xmlns="http://www.w3.org/2000/svg" xmlns:xlink="http://www.w3.org/1999/xlink" x="0px" y="0px"
	 viewBox="0 0 612 490" enable-background="new 0 0 612 490" xml:space="preserve">
<path id="XMLID_15_" fill="#E6E7E8" d="M304.9,26.2c-172,0-271,157.2-256.2,354c0,0,134.9,14.6,256.2,14.6s256.2-14.6,256.2-14.6
	C576,183.4,476.9,26.2,304.9,26.2z"/>
<linearGradient id="XMLID_39_" gradientUnits="userSpaceOnUse" x1="304.9" y1="377.8" x2="354" y2="377.8" gradientTransform="matrix(1 0 0 -1 0 504)">
	<stop  offset="0" style="stop-color:#6D6E71"/>
	<stop  offset="1" style="stop-color:#BCBEC0"/>
</linearGradient>
<path id="XMLID_14_" fill="url(#XMLID_39_)" d="M304.9,9.1v234.2l0,0c32.9,0,44.6-95.7,49.1-212.1C345.8,15.5,321.3,9.1,304.9,9.1z"
	/>
<linearGradient id="XMLID_40_" gradientUnits="userSpaceOnUse" x1="255.8" y1="377.8" x2="304.9" y2="377.8" gradientTransform="matrix(1 0 0 -1 0 504)">
	<stop  offset="0" style="stop-color:#BCBEC0"/>
	<stop  offset="1" style="stop-color:#6D6E71"/>
</linearGradient>
<path id="XMLID_13_" fill="url(#XMLID_40_)" d="M304.9,9.1v234.2l0,0c-32.9,0-44.6-95.7-49.1-212.1C264,15.5,288.5,9.1,304.9,9.1z"
	/>
<linearGradient id="XMLID_41_" gradientUnits="userSpaceOnUse" x1="419.8501" y1="374.8565" x2="487.892" y2="374.8565" gradientTransform="matrix(1 0 0 -1 0 504)">
	<stop  offset="0" style="stop-color:#6D6E71"/>
	<stop  offset="1" style="stop-color:#BCBEC0"/>
</linearGradient>
<path id="XMLID_12_" fill="url(#XMLID_41_)" d="M487.8,108.6c0-34.6-48.3-65.2-64-52.3c13.6,86.3-19.5,148.7,5.8,148.7
	C453.5,194.8,487.8,148,487.8,108.6z"/>
<linearGradient id="XMLID_42_" gradientUnits="userSpaceOnUse" x1="122" y1="374.8565" x2="190.0419" y2="374.8565" gradientTransform="matrix(1 0 0 -1 0 504)">
	<stop  offset="0" style="stop-color:#6D6E71"/>
	<stop  offset="1" style="stop-color:#BCBEC0"/>
</linearGradient>
<path id="XMLID_11_" fill="url(#XMLID_42_)" d="M122,108.6c0-34.6,48.3-65.2,64-52.3c-13.6,86.3,19.5,148.7-5.8,148.7
	C156.3,194.8,122,148,122,108.6z"/>
<linearGradient id="XMLID_43_" gradientUnits="userSpaceOnUse" x1="16.7945" y1="102.9" x2="593.0056" y2="102.9" gradientTransform="matrix(1 0 0 -1 0 504)">
	<stop  offset="0" style="stop-color:#6D6E71"/>
	<stop  offset="1" style="stop-color:#BCBEC0"/>
</linearGradient>
<path id="XMLID_10_" fill="url(#XMLID_43_)" d="M592.7,380.7c-6.9-16-30.2-30.2-30.2-30.2S446,376.3,304.9,376.3
	S47.3,350.5,47.3,350.5S24,364.7,17.1,380.7c-6.9,15.9,103.5,71,287.8,71S599.6,396.6,592.7,380.7z"/>
<polygon id="XMLID_9_" fill="#939598" points="562.6,281.1 353.9,281.1 353.9,227.4 553.5,227.4 "/>
<polygon id="XMLID_8_" fill="#939598" points="47.2,281.1 255.9,281.1 255.9,227.4 56.3,227.4 "/>
<circle id="XMLID_7_" fill="#939598" cx="304.9" cy="254.2" r="121.8"/>
<circle id="XMLID_6_" fill="#FFFFFF" cx="304.9" cy="254.2" r="92"/>
<circle id="XMLID_1_" fill="#BCBEC0" cx="304.9" cy="254.2" r="68.7"/>
</svg>
